<?xml version="1.0" standalone="no"?>
<!DOCTYPE svg PUBLIC "-//W3C//DTD SVG 20010904//EN"
 "http://www.w3.org/TR/2001/REC-SVG-20010904/DTD/svg10.dtd">
<svg version="1.0" xmlns="http://www.w3.org/2000/svg"
 width="50.000000pt" height="50.000000pt" viewBox="0 0 50.000000 50.000000"
 preserveAspectRatio="xMidYMid meet">
<metadata>
Created by potrace 1.10, written by Peter Selinger 2001-2011
</metadata>
<g transform="translate(0.000000,50.000000) scale(0.100000,-0.100000)"
fill="#000000" stroke="none">
<path d="M201 466 c-13 -7 -30 -24 -37 -37 -16 -28 -18 -79 -4 -79 6 0 10 9
10 20 0 60 56 102 109 81 29 -13 51 -47 51 -81 0 -11 5 -20 10 -20 6 0 10 11
10 25 0 79 -81 129 -149 91z"/>
<path d="M145 330 c-3 -5 -19 -10 -35 -10 -26 0 -29 -4 -43 -67 -8 -38 -15
-77 -14 -88 0 -11 -3 -46 -7 -77 -7 -54 -6 -58 13 -59 27 0 355 0 382 0 19 1
20 5 13 58 -4 32 -7 67 -7 78 1 11 -6 50 -14 88 -14 62 -17 67 -42 67 -15 0
-32 5 -39 12 -9 9 -15 9 -24 0 -15 -15 -144 -16 -153 -2 -3 6 -10 10 -15 10
-5 0 -12 -4 -15 -10z m264 -67 c20 -79 21 -77 -39 -90 -30 -6 -84 -11 -120
-11 -36 0 -90 5 -120 11 -60 13 -59 11 -39 90 l10 37 149 0 149 0 10 -37z
m-244 -118 c22 -4 50 -11 63 -17 16 -8 28 -8 45 0 12 6 40 13 62 17 22 3 50 9
62 12 19 4 23 0 28 -34 4 -21 9 -46 12 -55 4 -17 -10 -18 -186 -18 l-190 0 5
33 c13 77 14 79 37 74 12 -3 40 -9 62 -12z"/>
</g>
</svg>
