<?xml version="1.0" encoding="UTF-8"?>
<svg version="1.1" xmlns="http://www.w3.org/2000/svg" width="48" height="48">
<path d="M0 0 C3.375 0.25 3.375 0.25 7 1 C7.35747314 1.98081543 7.35747314 1.98081543 7.72216797 2.98144531 C8.14385254 3.64756836 8.56553711 4.31369141 9 5 C11.79182335 5.57666032 14.24795495 5.88353252 17.0703125 6.046875 C17.86654022 6.10780334 18.66276794 6.16873169 19.48312378 6.23150635 C22.02948076 6.42222482 24.57677168 6.58638752 27.125 6.75 C28.85038713 6.87455917 30.5756509 7.00083981 32.30078125 7.12890625 C36.53268101 7.43927291 40.76560702 7.72583522 45 8 C44.88485851 10.04224637 44.75742674 12.08380159 44.625 14.125 C44.55539063 15.26195312 44.48578125 16.39890625 44.4140625 17.5703125 C44 21 44 21 42 27 C32.43 27.33 22.86 27.66 13 28 C13 28.66 13 29.32 13 30 C22.57 30.33 32.14 30.66 42 31 C42 31.66 42 32.32 42 33 C41.34 33 40.68 33 40 33 C40 34.65 40 36.3 40 38 C38.02 38 36.04 38 34 38 C34 36.35 34 34.7 34 33 C28.72 33 23.44 33 18 33 C18 34.65 18 36.3 18 38 C16.02 38 14.04 38 12 38 C12 36.35 12 34.7 12 33 C11.01 32.67 10.02 32.34 9 32 C8.87882813 31.06800781 8.75765625 30.13601562 8.6328125 29.17578125 C7.52735473 20.76579868 6.3281032 12.37835316 5 4 C3.35 4 1.7 4 0 4 C0 2.68 0 1.36 0 0 Z " fill="#2C7AD4" transform="translate(0,6)"/>
<path d="M0 0 C3.375 0.25 3.375 0.25 7 1 C7.35747314 1.98081543 7.35747314 1.98081543 7.72216797 2.98144531 C8.14385254 3.64756836 8.56553711 4.31369141 9 5 C11.79182335 5.57666032 14.24795495 5.88353252 17.0703125 6.046875 C17.86654022 6.10780334 18.66276794 6.16873169 19.48312378 6.23150635 C22.02948076 6.42222482 24.57677168 6.58638752 27.125 6.75 C28.85038713 6.87455917 30.5756509 7.00083981 32.30078125 7.12890625 C36.53268101 7.43927291 40.76560702 7.72583522 45 8 C45 9.65 45 11.3 45 13 C32.13 12.34 19.26 11.68 6 11 C5.67 8.69 5.34 6.38 5 4 C3.35 4 1.7 4 0 4 C0 2.68 0 1.36 0 0 Z " fill="#42A2ED" transform="translate(0,6)"/>
<path d="M0 0 C1.98 0.99 1.98 0.99 4 2 C4 2.66 4 3.32 4 4 C13.57 4.33 23.14 4.66 33 5 C33 5.66 33 6.32 33 7 C32.34 7 31.68 7 31 7 C31 8.65 31 10.3 31 12 C29.02 12 27.04 12 25 12 C25 10.35 25 8.7 25 7 C19.72 7 14.44 7 9 7 C9 8.65 9 10.3 9 12 C7.02 12 5.04 12 3 12 C3 10.35 3 8.7 3 7 C2.01 6.67 1.02 6.34 0 6 C0 4.02 0 2.04 0 0 Z " fill="#B1C6D5" transform="translate(9,32)"/>
<path d="M0 0 C2.31 0.33 4.62 0.66 7 1 C7.66 2.65 8.32 4.3 9 6 C7.68 6 6.36 6 5 6 C5 5.34 5 4.68 5 4 C3.35 4 1.7 4 0 4 C0 2.68 0 1.36 0 0 Z " fill="#69ADDA" transform="translate(0,6)"/>
<path d="M0 0 C1.98 0 3.96 0 6 0 C6 1.65 6 3.3 6 5 C4.02 5 2.04 5 0 5 C0 3.35 0 1.7 0 0 Z " fill="#595C5E" transform="translate(34,39)"/>
<path d="M0 0 C1.98 0 3.96 0 6 0 C6 1.65 6 3.3 6 5 C4.02 5 2.04 5 0 5 C0 3.35 0 1.7 0 0 Z " fill="#595C5E" transform="translate(12,39)"/>
</svg>
